<?xml version="1.0" encoding="UTF-8" standalone="no"?>
<!-- Created with Inkscape (http://www.inkscape.org/) -->

<svg
   xmlns:dc="http://purl.org/dc/elements/1.1/"
   xmlns:cc="http://creativecommons.org/ns#"
   xmlns:rdf="http://www.w3.org/1999/02/22-rdf-syntax-ns#"
   xmlns:svg="http://www.w3.org/2000/svg"
   xmlns="http://www.w3.org/2000/svg"
   xmlns:sodipodi="http://sodipodi.sourceforge.net/DTD/sodipodi-0.dtd"
   xmlns:inkscape="http://www.inkscape.org/namespaces/inkscape"
   width="400.01834"
   height="258.80063"
   id="svg2"
   version="1.1"
   inkscape:version="0.48.5 r10040"
   sodipodi:docname="people.svg"
   inkscape:export-filename="/home/nived/devin/work/devtest/people.png"
   inkscape:export-xdpi="46.200001"
   inkscape:export-ydpi="46.200001">
  <defs
     id="defs4" />
  <sodipodi:namedview
     id="base"
     pagecolor="#ffffff"
     bordercolor="#666666"
     borderopacity="1.0"
     inkscape:pageopacity="0.0"
     inkscape:pageshadow="2"
     inkscape:zoom="0.62016856"
     inkscape:cx="289.37853"
     inkscape:cy="325.62153"
     inkscape:document-units="px"
     inkscape:current-layer="layer1"
     showgrid="false"
     inkscape:window-width="1419"
     inkscape:window-height="2193"
     inkscape:window-x="0"
     inkscape:window-y="0"
     inkscape:window-maximized="0"
     inkscape:object-paths="true"
     inkscape:object-nodes="true"
     inkscape:snap-object-midpoints="true"
     fit-margin-top="0"
     fit-margin-left="0"
     fit-margin-right="0"
     fit-margin-bottom="0" />
  <metadata
     id="metadata7">
    <rdf:RDF>
      <cc:Work
         rdf:about="">
        <dc:format>image/svg+xml</dc:format>
        <dc:type
           rdf:resource="http://purl.org/dc/dcmitype/StillImage" />
        <dc:title></dc:title>
      </cc:Work>
    </rdf:RDF>
  </metadata>
  <g
     inkscape:label="Layer 1"
     inkscape:groupmode="layer"
     id="layer1"
     transform="translate(-51.333782,-303.37225)">
    <path
       transform="translate(113.67877,62.362183)"
       d="m 290.24368,313.57098 c 0,40.07429 -32.48664,72.56092 -72.56093,72.56092 -40.07429,0 -72.56092,-32.48663 -72.56092,-72.56092 0,-40.07429 32.48663,-72.56092 72.56092,-72.56092 40.07429,0 72.56093,32.48663 72.56093,72.56092 z"
       sodipodi:ry="72.560921"
       sodipodi:rx="72.560921"
       sodipodi:cy="313.57098"
       sodipodi:cx="217.68275"
       id="path2998"
       style="fill:#0066ff;fill-opacity:1;fill-rule:nonzero;stroke:none"
       sodipodi:type="arc" />
    <g
       id="g3022"
       transform="translate(160.03713,0)">
      <path
         style="fill:#0066ff;fill-opacity:1;fill-rule:nonzero;stroke:none"
         d="m 171.3125,397.03125 c -50.01774,0 -94.075926,9.00805 -119.96875,22.71875 l 0,56.90625 c 25.891135,13.71442 69.94294,22.75 119.96875,22.75 50.02581,0 94.10887,-9.03558 120,-22.75 l 0,-56.90625 c -25.89282,-13.7107 -69.98226,-22.71875 -120,-22.71875 z"
         transform="translate(0,62.362183)"
         id="path3024"
         inkscape:connector-curvature="0" />
      <rect
         style="fill:#0066ff;fill-opacity:1;fill-rule:nonzero;stroke:none"
         id="rect3026"
         width="239.98122"
         height="76.592087"
         x="51.333782"
         y="485.58078" />
    </g>
    <g
       transform="matrix(1,0,0,1.1457054,31.039941,-81.911619)"
       id="g3029"
       style="fill:#ffffff">
      <path
         inkscape:connector-curvature="0"
         id="path3031"
         transform="translate(0,62.362183)"
         d="m 171.3125,397.03125 c -50.01774,0 -94.075926,9.00805 -119.96875,22.71875 l 0,56.90625 c 25.891135,13.71442 69.94294,22.75 119.96875,22.75 50.02581,0 94.10887,-9.03558 120,-22.75 l 0,-56.90625 c -25.89282,-13.7107 -69.98226,-22.71875 -120,-22.71875 z"
         style="fill:#ffffff;fill-opacity:1;fill-rule:nonzero;stroke:none" />
      <rect
         y="485.58078"
         x="51.333782"
         height="76.592087"
         width="239.98122"
         id="rect3033"
         style="fill:#ffffff;fill-opacity:1;fill-rule:nonzero;stroke:none" />
    </g>
    <g
       id="g3018">
      <path
         id="path3000"
         transform="translate(0,62.362183)"
         d="m 171.3125,397.03125 c -50.01774,0 -94.075926,9.00805 -119.96875,22.71875 l 0,56.90625 c 25.891135,13.71442 69.94294,22.75 119.96875,22.75 50.02581,0 94.10887,-9.03558 120,-22.75 l 0,-56.90625 c -25.89282,-13.7107 -69.98226,-22.71875 -120,-22.71875 z"
         style="fill:#0066ff;fill-opacity:1;fill-rule:nonzero;stroke:none"
         inkscape:connector-curvature="0" />
      <path
         style="fill:#0066ff;fill-opacity:1;fill-rule:nonzero;stroke:none"
         d="m 51.333782,485.58078 239.981218,0 0,76.59209 -239.981218,0 z"
         id="rect3002"
         inkscape:connector-curvature="0" />
    </g>
    <path
       sodipodi:type="arc"
       style="fill:#0066ff;fill-opacity:1;fill-rule:nonzero;stroke:none"
       id="path2996"
       sodipodi:cx="217.68275"
       sodipodi:cy="313.57098"
       sodipodi:rx="72.560921"
       sodipodi:ry="72.560921"
       d="m 290.24368,313.57098 c 0,40.07429 -32.48664,72.56092 -72.56093,72.56092 -40.07429,0 -72.56092,-32.48663 -72.56092,-72.56092 0,-40.07429 32.48663,-72.56092 72.56092,-72.56092 40.07429,0 72.56093,32.48663 72.56093,72.56092 z"
       transform="translate(-46.358364,62.362183)" />
  </g>
</svg>
