<?xml version="1.0" encoding="UTF-8" standalone="no"?>
<!-- Created with Inkscape (http://www.inkscape.org/) -->

<svg
   xmlns:dc="http://purl.org/dc/elements/1.1/"
   xmlns:cc="http://creativecommons.org/ns#"
   xmlns:rdf="http://www.w3.org/1999/02/22-rdf-syntax-ns#"
   xmlns:svg="http://www.w3.org/2000/svg"
   xmlns="http://www.w3.org/2000/svg"
   xmlns:sodipodi="http://sodipodi.sourceforge.net/DTD/sodipodi-0.dtd"
   xmlns:inkscape="http://www.inkscape.org/namespaces/inkscape"
   width="25"
   height="25"
   id="svg2"
   version="1.1"
   inkscape:version="0.48.5 r10040"
   sodipodi:docname="person.svg"
   inkscape:export-filename="/home/devin/work/devtest/img_link/person.png"
   inkscape:export-xdpi="46.200001"
   inkscape:export-ydpi="46.200001">
  <defs
     id="defs4" />
  <sodipodi:namedview
     id="base"
     pagecolor="#ffffff"
     bordercolor="#666666"
     borderopacity="1.0"
     inkscape:pageopacity="0.0"
     inkscape:pageshadow="2"
     inkscape:zoom="45.254834"
     inkscape:cx="13.025251"
     inkscape:cy="11.929333"
     inkscape:document-units="px"
     inkscape:current-layer="layer1"
     showgrid="false"
     inkscape:window-width="1491"
     inkscape:window-height="1444"
     inkscape:window-x="40"
     inkscape:window-y="72"
     inkscape:window-maximized="0"
     fit-margin-top="0"
     fit-margin-left="0"
     fit-margin-right="0"
     fit-margin-bottom="0" />
  <metadata
     id="metadata7">
    <rdf:RDF>
      <cc:Work
         rdf:about="">
        <dc:format>image/svg+xml</dc:format>
        <dc:type
           rdf:resource="http://purl.org/dc/dcmitype/StillImage" />
        <dc:title></dc:title>
      </cc:Work>
    </rdf:RDF>
  </metadata>
  <g
     inkscape:label="Layer 1"
     inkscape:groupmode="layer"
     id="layer1"
     transform="translate(-727.09356,-565.71938)">
    <path
       style="fill:#ffffff;fill-opacity:1;fill-rule:nonzero;stroke:none"
       d="M 12.5,0 C 5.5964406,0 0,5.5964406 0,12.5 0,19.403559 5.5964406,25 12.5,25 19.403559,25 25,19.403559 25,12.5 25,5.5964406 19.403559,0 12.5,0 z m 0,2.875 c 2.983258,0 5.40625,2.422992 5.40625,5.40625 0,2.983258 -2.422992,5.375 -5.40625,5.375 -2.983258,0 -5.40625,-2.391742 -5.40625,-5.375 C 7.09375,5.297992 9.516742,2.875 12.5,2.875 z m 8.976669,13.213518 c 0.453466,0.330218 0.494501,3.558435 -0.42536,4.560917 -0.622742,0.678677 -0.446194,0.511637 -0.928655,0.912274 C 19.389,22.17094 5.3329639,22.08083 4.520196,21.307454 4.4318928,21.22343 4.3446183,21.167491 4.0868622,20.894563 c -0.9667645,-1.023672 -0.8129494,-4.298 -0.5372604,-4.687035 0.3535534,-0.498912 4.8488004,-1.820639 9.1268452,-1.72484 4.278046,0.0958 8.137692,1.123369 8.800222,1.60583 z"
       id="path3572"
       transform="translate(727.09356,565.71938)"
       inkscape:connector-curvature="0"
       sodipodi:nodetypes="ssssssssssssssssss" />
  </g>
</svg>
