<?xml version="1.0" encoding="UTF-8" standalone="no"?>
<!-- Created with Inkscape (http://www.inkscape.org/) -->

<svg
   xmlns:dc="http://purl.org/dc/elements/1.1/"
   xmlns:cc="http://creativecommons.org/ns#"
   xmlns:rdf="http://www.w3.org/1999/02/22-rdf-syntax-ns#"
   xmlns:svg="http://www.w3.org/2000/svg"
   xmlns="http://www.w3.org/2000/svg"
   xmlns:sodipodi="http://sodipodi.sourceforge.net/DTD/sodipodi-0.dtd"
   xmlns:inkscape="http://www.inkscape.org/namespaces/inkscape"
   width="50"
   height="50"
   id="svg2"
   version="1.1"
   inkscape:version="0.48.5 r10040"
   sodipodi:docname="twitter_2.svg"
   inkscape:export-filename="/home/nived/devin/work/devtest/img_link/twitter.png"
   inkscape:export-xdpi="46.200001"
   inkscape:export-ydpi="46.200001">
  <defs
     id="defs4" />
  <sodipodi:namedview
     id="base"
     pagecolor="#ffffff"
     bordercolor="#666666"
     borderopacity="1.0"
     inkscape:pageopacity="0.0"
     inkscape:pageshadow="2"
     inkscape:zoom="10.383967"
     inkscape:cx="12.339223"
     inkscape:cy="-5.1877563"
     inkscape:document-units="px"
     inkscape:current-layer="layer1"
     showgrid="false"
     inkscape:window-width="1431"
     inkscape:window-height="2528"
     inkscape:window-x="0"
     inkscape:window-y="0"
     inkscape:window-maximized="0"
     fit-margin-top="0"
     fit-margin-left="0"
     fit-margin-right="0"
     fit-margin-bottom="0" />
  <metadata
     id="metadata7">
    <rdf:RDF>
      <cc:Work
         rdf:about="">
        <dc:format>image/svg+xml</dc:format>
        <dc:type
           rdf:resource="http://purl.org/dc/dcmitype/StillImage" />
        <dc:title></dc:title>
      </cc:Work>
    </rdf:RDF>
  </metadata>
  <g
     inkscape:label="Layer 1"
     inkscape:groupmode="layer"
     id="layer1"
     transform="translate(-159.22255,-585.64716)">
    <rect
       style="fill:#2196f3;fill-opacity:1;fill-rule:nonzero;stroke:none"
       id="rect2982"
       width="50"
       height="50"
       x="159.22255"
       y="585.64716"
       rx="10"
       ry="10" />
  </g>
  <g
     inkscape:groupmode="layer"
     id="layer2"
     inkscape:label="logo">
    <g
       transform="matrix(0.26251439,0,0,0.26251439,-71.62452,-97.330799)"
       id="layer1-5"
       inkscape:label="Layer 1"
       style="fill:#ffffff">
      <path
         d="m 453.82593,412.80619 c -6.3097,2.79897 -13.09189,4.68982 -20.20852,5.54049 7.26413,-4.35454 12.84406,-11.24992 15.47067,-19.46675 -6.79934,4.03295 -14.3293,6.96055 -22.34461,8.53841 -6.41775,-6.83879 -15.56243,-11.111 -25.68298,-11.111 -19.43159,0 -35.18696,15.75365 -35.18696,35.18525 0,2.75781 0.31128,5.44359 0.91155,8.01875 -29.24344,-1.46723 -55.16995,-15.47582 -72.52461,-36.76396 -3.02879,5.19662 -4.76443,11.24048 -4.76443,17.6891 0,12.20777 6.21194,22.97747 15.65332,29.28716 -5.76773,-0.18265 -11.19331,-1.76565 -15.93716,-4.40083 -0.004,0.14663 -0.004,0.29412 -0.004,0.44248 0,17.04767 12.12889,31.26806 28.22555,34.50266 -2.95247,0.80436 -6.06101,1.23398 -9.26989,1.23398 -2.2673,0 -4.47114,-0.22124 -6.62011,-0.63114 4.47801,13.97857 17.47214,24.15143 32.86992,24.43441 -12.04227,9.43796 -27.21366,15.06335 -43.69965,15.06335 -2.84014,0 -5.64082,-0.16722 -8.39349,-0.49223 15.57186,9.98421 34.06703,15.8094 53.93768,15.8094 64.72024,0 100.11301,-53.61524 100.11301,-100.11387 0,-1.52554 -0.0343,-3.04251 -0.10204,-4.55261 6.87394,-4.95995 12.83891,-11.15646 17.55618,-18.21305 z"
         id="path5"
         inkscape:connector-curvature="0"
         style="fill:#ffffff" />
    </g>
  </g>
</svg>
